<svg width="230" height="14" viewBox="0 0 230 14" fill="none" xmlns="http://www.w3.org/2000/svg">
<path d="M65.7974 0.02572C70.5034 -0.212708 80.3108 1.29444 87.9802 0.931427C95.6497 0.569505 111.228 1.33283 117.516 0.743715C123.803 0.161683 123.8 1.80691 128.867 2.81487C133.935 3.7979 137.967 0.0633305 144.148 0.848414C150.328 1.61046 151.237 3.52858 158.326 3.3159C165.414 3.14542 172.49 4.55139 175.651 3.96103C178.812 3.40386 179.126 5.42397 183.61 5.10303C188.093 4.80461 190.805 5.16675 194.717 5.84072C198.63 6.5413 210.663 7.14036 215.045 6.68562C219.427 6.26777 224.41 7.31592 227.411 7.52623C228.345 7.60045 229.08 7.68919 229.644 7.77623C229.882 7.81321 229.992 7.8849 229.991 7.95439L229.983 7.98654C229.946 8.06074 229.78 8.12612 229.511 8.13435C228.019 8.18036 225.789 8.30654 223.152 8.66893C218.236 9.37886 217.707 8.61006 211.073 9.02644C204.439 9.45577 200.445 10.4886 192.649 9.97337C184.855 9.3556 183.034 12.3423 172.038 10.8055C161.043 9.08543 159.85 12.5094 148.87 13.2674C137.89 14.0245 124.058 11.9542 117.441 12.141C110.824 12.3603 101.934 12.9093 92.5623 12.3198C83.1907 11.7194 71.6009 13.1691 61.2611 12.0129C60.0424 11.8764 58.7642 11.7347 57.4466 11.5895C47.5843 10.5066 35.5083 8.90725 29.5527 8.03698C22.8022 7.03053 21.1548 6.93369 14.6464 7.05768C10.9052 7.13053 5.75746 6.59765 1.4107 6.01435C-0.776759 5.72646 -0.278022 5.48092 1.92855 5.27809C5.15562 4.97065 7.80143 5.11623 9.4686 4.49996C12.8 3.23024 14.2183 2.45366 18.4026 3.07603C22.5862 3.78097 24.5817 1.6242 27.0235 1.71647C29.4651 1.84982 29.4122 3.20488 41.8463 1.8336C48.521 1.08699 53.5757 0.679283 57.5537 0.448431C60.9862 0.247757 63.6176 0.136487 65.7974 0.02572Z" fill="#FFB84D"/>
</svg>
